<svg xmlns="http://www.w3.org/2000/svg" viewBox="0 0 1600 1100" role="img" aria-labelledby="title desc">
  <title>Architecture hero illustration</title>
  <desc>Abstract geometric skyline made from layered blocks, grids, and connection lines.</desc>
  <defs>
    <linearGradient id="bg" x1="0" y1="0" x2="1" y2="1">
      <stop offset="0%" stop-color="#efe7db"/>
      <stop offset="100%" stop-color="#d3e7e6"/>
    </linearGradient>
  </defs>
  <rect width="1600" height="1100" fill="url(#bg)" rx="48"/>
  <g fill="none" stroke="#0b5d66" stroke-width="8" opacity="0.28">
    <path d="M120 920h1360"/>
    <path d="M160 240h600"/>
    <path d="M860 180h520"/>
    <path d="M280 460h980"/>
  </g>
  <g fill="#f4efe8" stroke="#1c2428" stroke-opacity="0.12">
    <rect x="180" y="360" width="200" height="460" rx="18"/>
    <rect x="420" y="250" width="250" height="570" rx="18"/>
    <rect x="720" y="310" width="160" height="510" rx="18"/>
    <rect x="930" y="210" width="240" height="610" rx="18"/>
    <rect x="1210" y="400" width="170" height="420" rx="18"/>
  </g>
  <g fill="#0b5d66" opacity="0.9">
    <circle cx="300" cy="520" r="18"/>
    <circle cx="545" cy="430" r="18"/>
    <circle cx="800" cy="530" r="18"/>
    <circle cx="1050" cy="390" r="18"/>
    <circle cx="1295" cy="580" r="18"/>
  </g>
  <g stroke="#0b5d66" stroke-width="6" opacity="0.55">
    <path d="M300 520 545 430 800 530 1050 390 1295 580" fill="none"/>
  </g>
</svg>